<svg width="5" height="7" viewBox="0 0 5 7" fill="none" xmlns="http://www.w3.org/2000/svg">
<path d="M0 2.33333C0 1.04467 1.11929 0 2.5 0C3.88071 0 5 1.04467 5 2.33333C5 3.622 3.88071 4.66667 2.5 4.66667C1.11929 4.66667 0 3.622 0 2.33333Z" fill="#D9D9D9"/>
<path d="M1.5 2.33333C1.5 1.81787 1.94772 1.4 2.5 1.4C3.05228 1.4 3.5 1.81787 3.5 2.33333C3.5 2.8488 3.05228 3.26667 2.5 3.26667C1.94772 3.26667 1.5 2.8488 1.5 2.33333Z" fill="white"/>
<path d="M2.5 7L0.334936 3.5L4.66506 3.5L2.5 7Z" fill="#D9D9D9"/>
</svg>
