<svg width="26" height="25" viewBox="0 0 26 25" fill="none" xmlns="http://www.w3.org/2000/svg">
<path d="M0.904489 4.53417H24.4212C24.9208 4.53417 25.3257 4.08308 25.3257 3.52658V1.00759C25.3257 0.451087 24.9208 0 24.4212 0H0.904489C0.404928 0 0 0.451087 0 1.00759V3.52658C0 4.08308 0.404928 4.53417 0.904489 4.53417ZM0.904489 14.6101H24.4212C24.9208 14.6101 25.3257 14.159 25.3257 13.6025V11.0835C25.3257 10.527 24.9208 10.0759 24.4212 10.0759H0.904489C0.404928 10.0759 0 10.527 0 11.0835V13.6025C0 14.159 0.404928 14.6101 0.904489 14.6101ZM0.904489 24.686H24.4212C24.9208 24.686 25.3257 24.2349 25.3257 23.6784V21.1595C25.3257 20.603 24.9208 20.1519 24.4212 20.1519H0.904489C0.404928 20.1519 0 20.603 0 21.1595V23.6784C0 24.2349 0.404928 24.686 0.904489 24.686Z" fill="white"/>
</svg>
