<svg width="8" height="10" viewBox="0 0 8 10" fill="none" xmlns="http://www.w3.org/2000/svg">
<g id="Group 16">
<g id="Vector">
<path d="M0.857422 3.33333C0.857422 1.49238 2.45641 0 4.42885 0C6.4013 0 8.00028 1.49238 8.00028 3.33333C8.00028 5.17428 6.4013 6.66667 4.42885 6.66667C2.45641 6.66667 0.857422 5.17428 0.857422 3.33333Z" fill="#7D7D7D"/>
<path d="M3.00028 3.33333C3.00028 2.59695 3.63987 2 4.42885 2C5.21783 2 5.85742 2.59695 5.85742 3.33333C5.85742 4.06971 5.21783 4.66667 4.42885 4.66667C3.63987 4.66667 3.00028 4.06971 3.00028 3.33333Z" fill="white"/>
<path d="M4.42885 10L1.3359 5L7.5218 5L4.42885 10Z" fill="#7D7D7D"/>
</g>
</g>
</svg>
