<svg width="60" height="75" viewBox="0 0 60 75" fill="none" xmlns="http://www.w3.org/2000/svg">
<g id="_&#235;&#160;&#136;&#236;&#157;&#180;&#236;&#150;&#180;_1" clip-path="url(#clip0_748_425)">
<path id="Vector" d="M22.3369 25.9379C19.8247 23.3237 18.7196 21.3131 18.7196 19.0007C18.7196 15.5832 21.1344 12.7694 25.1558 12.7694C28.6709 12.7694 31.3778 15.1013 31.665 18.4117C31.6943 18.7476 31.9669 19.0056 32.3028 19.0056L43.851 19.0786C44.2162 19.0786 44.5131 18.7816 44.5034 18.4214C44.2259 8.54375 37.7459 0 25.2532 0C12.7605 0 3.63681 8.04232 3.63681 18.3971C3.63681 24.5651 5.92016 29.0341 9.07984 33.216C9.3038 33.508 9.19669 33.878 8.93379 34.1409C3.41285 39.6615 0 45.2502 0 53.0735C0 63.8323 9.07497 75.0049 24.5472 75.0049C33.5735 75.0049 39.9757 72.3809 44.2989 68.4912C44.557 68.2575 44.9513 68.2624 45.1947 68.5106L50.1363 73.4519C50.3846 73.7002 50.7887 73.705 51.0419 73.4616L59.9951 64.8497M18.0964 42.2076L33.3836 58.19C33.6465 58.4626 33.6222 58.8959 33.335 59.1393C31.3389 60.8091 28.7877 62.0602 24.5131 62.7126C23.9484 62.8002 23.3642 62.8002 22.8189 62.8002C12.2687 62.8002 7.94547 49.0913 17.2833 42.1102C17.5365 41.9447 17.8773 41.9934 18.0915 42.2124L18.0964 42.2076Z" fill="url(#paint0_linear_748_425)"/>
</g>
<defs>
<linearGradient id="paint0_linear_748_425" x1="31.6164" y1="-14.629" x2="28.6664" y2="119.486" gradientUnits="userSpaceOnUse">
<stop offset="0.03" stop-color="#00A696"/>
<stop offset="0.2" stop-color="#A6D370"/>
<stop offset="0.3" stop-color="#FFEC5C"/>
<stop offset="0.54" stop-color="#FAB53A"/>
<stop offset="0.85" stop-color="#F57513"/>
<stop offset="1" stop-color="#F35C04"/>
</linearGradient>
<clipPath id="clip0_748_425">
<rect width="60" height="75" fill="white"/>
</clipPath>
</defs>
</svg>
