<svg width="102" height="30" viewBox="0 0 102 30" fill="none" xmlns="http://www.w3.org/2000/svg">
<g clip-path="url(#clip0_629_336)">
<path d="M0 2.27744H7.46166C9.86182 2.27744 11.7126 2.65701 13.2437 3.80488C14.7747 4.95274 15.8194 6.80031 15.8194 9.21037C15.8194 11.6204 14.7792 13.468 13.2437 14.6159C11.7126 15.7591 9.86182 16.1707 7.46166 16.1707H4.59768V23.5427H0V2.27744ZM7.28604 12.2332C8.58744 12.2332 9.45654 12.0869 10.1185 11.6159C10.7805 11.1448 11.2173 10.2668 11.2173 9.26524C11.2173 8.26372 10.785 7.35823 10.1185 6.8872C9.45203 6.41616 8.58744 6.26982 7.28604 6.26982H4.59768V12.2332H7.28604Z" fill="#00785B"/>
<path d="M18.3953 1.10213H22.7903V23.5381H18.3953V1.10213Z" fill="#00785B"/>
<path d="M46.0938 8.97256H50.4302V10.1753L50.4888 10.2027C51.5875 9.29268 53.0916 8.64787 54.8568 8.64787C56.4464 8.64787 57.7208 9.14634 58.6169 10.1479C59.513 11.1494 59.8598 12.439 59.8598 14.378V23.5427H55.4647V14.9954C55.4647 14.1448 55.3206 13.4954 54.9153 13.0884C54.5101 12.6814 53.9607 12.503 53.2672 12.503C52.227 12.503 51.1868 12.9741 50.4888 13.5915V23.5473H46.0938V8.98171V8.97256Z" fill="#00785B"/>
<path d="M72.1938 22.6875L72.1353 22.6601C71.1806 23.4238 69.8792 23.8628 68.4607 23.8628C64.9348 23.8628 61.8367 21.0412 61.8367 16.5183C61.8367 11.9954 65.0474 8.64787 69.2668 8.64787C70.3656 8.64787 71.2617 8.91311 72.0452 9.23323L72.1038 9.20579V1.10213H76.4988V23.5381H72.1893V22.6875H72.1938ZM72.1083 19.3674V12.9924C71.4733 12.6402 70.7213 12.407 69.8522 12.407C67.4791 12.407 66.2677 14.2271 66.2677 16.372C66.2677 18.5168 67.4836 20.218 69.6811 20.218C70.6628 20.218 71.4733 19.8384 72.1083 19.3674Z" fill="#00785B"/>
<path d="M79.8176 1.10213H84.2127V23.5381H79.8176V1.10213Z" fill="#00785B"/>
<path d="M88.2656 30L91.9942 21.8963L86.2122 8.97256H90.8414L92.3184 12.5854C92.9533 14.1402 93.5612 15.6677 94.1421 17.1951H94.2007C94.8356 15.5808 95.4751 14.0534 96.137 12.4939L97.6411 8.96799H102.009L92.7552 29.9954H88.2746L88.2656 30Z" fill="#00785B"/>
<path d="M32.3548 8.30945C31.5622 7.47256 31.2155 6.82774 31.2155 6.08689C31.2155 4.9939 31.9765 4.08841 33.2464 4.08841C34.3542 4.08841 35.2097 4.83384 35.2998 5.89482C35.3088 6 35.3944 6.08232 35.5024 6.08689L39.1455 6.10976C39.258 6.10976 39.3526 6.01372 39.3526 5.89939C39.267 2.73476 37.2226 0 33.2824 0C29.3422 0 26.4647 2.5747 26.4647 5.89482C26.4647 7.87043 27.1852 9.30183 28.1804 10.6418C28.2524 10.7378 28.2164 10.8521 28.1354 10.939C26.3926 12.7088 25.3164 14.497 25.3164 17.003C25.3164 20.4466 28.1804 24.0274 33.0573 24.0274C35.9032 24.0274 37.9251 23.186 39.2851 21.9421C39.3661 21.8689 39.4922 21.8689 39.5688 21.9466L41.1268 23.529C41.2034 23.6067 41.334 23.6113 41.4105 23.529L44.234 20.7713L32.3548 8.30945ZM31.0173 13.5183L35.8357 18.6357C35.9167 18.7226 35.9122 18.8643 35.8222 18.9375C35.1917 19.4726 34.3902 19.875 33.0392 20.0808C32.8591 20.1082 32.679 20.1082 32.5034 20.1082C29.1756 20.1082 27.8111 15.718 30.7562 13.4817C30.8372 13.4268 30.9453 13.4451 31.0083 13.5137L31.0173 13.5183Z" fill="url(#paint0_linear_629_336)"/>
</g>
<defs>
<linearGradient id="paint0_linear_629_336" x1="35.2773" y1="-4.68293" x2="34.3206" y2="38.2676" gradientUnits="userSpaceOnUse">
<stop offset="0.03" stop-color="#00A696"/>
<stop offset="0.2" stop-color="#A6D370"/>
<stop offset="0.3" stop-color="#FFEC5C"/>
<stop offset="0.54" stop-color="#FAB53A"/>
<stop offset="0.85" stop-color="#F57513"/>
<stop offset="1" stop-color="#F35C04"/>
</linearGradient>
<clipPath id="clip0_629_336">
<rect width="102" height="30" fill="white"/>
</clipPath>
</defs>
</svg>
