<svg width="22" height="25" viewBox="0 0 22 25" fill="none" xmlns="http://www.w3.org/2000/svg">
<rect x="0.75" y="3.75" width="20.5" height="20.5" rx="2.25" stroke="#7E7E7E" stroke-width="1.5"/>
<rect y="4" width="22" height="6" rx="2" fill="#7E7E7E"/>
<rect x="4.5" y="0.5" width="2" height="5" rx="1" fill="#7E7E7E" stroke="#F8F8F8"/>
<rect x="15.5" y="0.5" width="2" height="5" rx="1" fill="#7E7E7E" stroke="#F8F8F8"/>
<path d="M5.6 19V14.602H6.266L7.112 16.96C7.22 17.26 7.322 17.566 7.43 17.878H7.454C7.562 17.566 7.658 17.26 7.76 16.96L8.594 14.602H9.266V19H8.75V16.57C8.75 16.186 8.792 15.658 8.822 15.268H8.792L8.444 16.27L7.61 18.562H7.238L6.404 16.27L6.056 15.268H6.032C6.062 15.658 6.104 16.186 6.104 16.57V19H5.6ZM9.88714 19L11.3751 14.602H11.9991L13.4871 19H12.9051L12.1311 16.54C11.9751 16.048 11.8371 15.568 11.6931 15.058H11.6691C11.5251 15.568 11.3871 16.048 11.2251 16.54L10.4511 19H9.88714ZM10.6671 17.656V17.218H12.6951V17.656H10.6671ZM14.7281 19V17.296L13.4021 14.602H13.9961L14.5601 15.85C14.7101 16.174 14.8421 16.48 14.9921 16.81H15.0161C15.1721 16.48 15.3221 16.174 15.4601 15.85L16.0301 14.602H16.6001L15.2801 17.296V19H14.7281Z" fill="#7E7E7E"/>
</svg>
