<svg width="18" height="18" viewBox="0 0 18 18" fill="none" xmlns="http://www.w3.org/2000/svg">
<g clip-path="url(#clip0_995_1281)">
<rect width="18" height="18" fill="white"/>
<path d="M-0.000279578 8.99926C-0.000279578 7.00724 -0.00074916 5.01522 -0.000279578 3.0232C0.00112917 1.31569 1.31831 0.000197146 3.02852 -0.000272337C7.01245 -0.0012113 10.9969 -0.0012113 14.9808 -0.000272337C16.6741 -0.000272337 17.9983 1.32085 17.9988 3.01006C17.9997 7.00208 17.9997 10.9941 17.9988 14.9856C17.9988 16.6744 16.6732 17.9974 14.9822 17.9979C10.9903 17.9988 6.99836 17.9988 3.00645 17.9979C1.33005 17.9979 0.00159875 16.6716 0.000190003 14.9988C-0.00121874 12.9988 0.000190003 10.9993 0.000190003 8.99926H-0.000279578ZM2.00906 8.99316C2.00906 10.9617 2.00859 12.9302 2.00906 14.8993C2.00906 15.595 2.40069 15.9889 3.09332 15.9889C7.03077 15.9894 10.9677 15.9894 14.9052 15.9889C15.5969 15.9889 15.989 15.5941 15.989 14.8983C15.9894 10.9687 15.9894 7.03963 15.989 3.11006C15.989 2.39879 15.6006 2.00912 14.893 2.00912C10.9635 2.00865 7.03405 2.00865 3.10459 2.00912C2.396 2.00912 2.00953 2.39832 2.00953 3.111C2.00906 5.07203 2.00953 7.03259 2.00953 8.99362L2.00906 8.99316Z" fill="#B1B1B1"/>
<path d="M15.0049 13.9986H2.99585C3.99888 12.3263 4.98781 10.6775 5.99882 8.99157C6.50597 9.82255 6.99011 10.6164 7.49961 11.4507C8.50404 9.28734 9.48922 7.16481 10.4998 4.98828C12.0118 8.01176 13.5023 10.9934 15.0049 13.9981V13.9986Z" fill="#B1B1B1"/>
<path d="M7.00043 5.46766C7.02485 6.29395 6.37072 6.97611 5.53017 7.00099C4.71075 7.02541 4.0106 6.35639 3.99088 5.5301C3.97163 4.71367 4.64642 4.01038 5.46771 3.99067C6.2923 3.97095 6.97554 4.62916 7.00043 5.46719V5.46766Z" fill="#B1B1B1"/>
</g>
<defs>
<clipPath id="clip0_995_1281">
<rect width="18" height="18" fill="white"/>
</clipPath>
</defs>
</svg>
