<svg width="16" height="16" viewBox="0 0 16 16" fill="none" xmlns="http://www.w3.org/2000/svg">
<path fill-rule="evenodd" clip-rule="evenodd" d="M7.99984 2.66699C6.5265 2.66699 5.33317 3.86033 5.33317 5.33366C5.33317 6.80699 6.5265 8.00033 7.99984 8.00033C9.47317 8.00033 10.6665 6.80699 10.6665 5.33366C10.6665 3.86033 9.47317 2.66699 7.99984 2.66699ZM9.33317 5.33366C9.33317 4.60033 8.73317 4.00033 7.99984 4.00033C7.2665 4.00033 6.6665 4.60033 6.6665 5.33366C6.6665 6.06699 7.2665 6.66699 7.99984 6.66699C8.73317 6.66699 9.33317 6.06699 9.33317 5.33366ZM11.9998 11.3337C11.8665 10.8603 9.79984 10.0003 7.99984 10.0003C6.19984 10.0003 4.13317 10.8603 3.99984 11.3403V12.0003H11.9998V11.3337ZM2.6665 11.3337C2.6665 9.56033 6.21984 8.66699 7.99984 8.66699C9.77984 8.66699 13.3332 9.56033 13.3332 11.3337V13.3337H2.6665V11.3337Z" fill="#7E7E7E"/>
</svg>
