<svg width="153" height="45" viewBox="0 0 153 45" fill="none" xmlns="http://www.w3.org/2000/svg">
<g id="_&#235;&#160;&#136;&#236;&#157;&#180;&#236;&#150;&#180;_1" clip-path="url(#clip0_602_26)">
<path id="Vector" d="M0 3.41615H11.1925C14.7927 3.41615 17.5689 3.98551 19.8655 5.70731C22.1621 7.42911 23.7292 10.2005 23.7292 13.8155C23.7292 17.4306 22.1688 20.202 19.8655 21.9238C17.5689 23.6387 14.7927 24.2561 11.1925 24.2561H6.89652V35.314H0V3.41615ZM10.9291 18.3498C12.8812 18.3498 14.1848 18.1303 15.1777 17.4238C16.1707 16.7172 16.8259 15.4001 16.8259 13.8979C16.8259 12.3956 16.1774 11.0373 15.1777 10.3308C14.178 9.62423 12.8812 9.40472 10.9291 9.40472H6.89652V18.3498H10.9291Z" fill="#00785B"/>
<path id="Vector_2" d="M27.5928 1.6532H34.1853V35.3072H27.5928V1.6532Z" fill="#00785B"/>
<path id="Vector_3" d="M69.1406 13.4588H75.6454V15.263L75.7332 15.3041C77.3813 13.939 79.6374 12.9718 82.2852 12.9718C84.6696 12.9718 86.5812 13.7195 87.9254 15.2218C89.2695 16.7241 89.7896 18.6585 89.7896 21.5671V35.314H83.1971V22.4931C83.1971 21.2172 82.9809 20.2431 82.373 19.6326C81.7651 19.0221 80.941 18.7546 79.9008 18.7546C78.3405 18.7546 76.7802 19.4611 75.7332 20.3872V35.3209H69.1406V13.4726V13.4588Z" fill="#00785B"/>
<path id="Vector_4" d="M108.291 34.0312L108.203 33.9901C106.771 35.1357 104.819 35.7942 102.691 35.7942C97.4021 35.7942 92.7549 31.5617 92.7549 24.7774C92.7549 17.9931 97.571 12.9718 103.9 12.9718C105.548 12.9718 106.892 13.3697 108.068 13.8498L108.156 13.8087V1.6532H114.748V35.3072H108.284V34.0312H108.291ZM108.162 29.0511V19.4886C107.21 18.9604 106.082 18.6105 104.778 18.6105C101.218 18.6105 99.4015 21.3407 99.4015 24.5579C99.4015 27.7751 101.225 30.327 104.522 30.327C105.994 30.327 107.21 29.7576 108.162 29.0511Z" fill="#00785B"/>
<path id="Vector_5" d="M119.727 1.6532H126.319V35.3072H119.727V1.6532Z" fill="#00785B"/>
<path id="Vector_6" d="M132.398 45L137.991 32.8445L129.318 13.4588H136.262L138.478 18.878C139.43 21.2104 140.342 23.5015 141.213 25.7927H141.301C142.254 23.3712 143.213 21.08 144.206 18.7409L146.462 13.452H153.014L139.133 44.9931H132.412L132.398 45Z" fill="#00785B"/>
<path id="Vector_7" d="M48.5322 12.4642C47.3433 11.2088 46.8232 10.2416 46.8232 9.13034C46.8232 7.49085 47.9648 6.13262 49.8696 6.13262C51.5312 6.13262 52.8146 7.25076 52.9497 8.84223C52.9632 9 53.0916 9.12348 53.2537 9.13034L58.7182 9.16463C58.8871 9.16463 59.0289 9.02058 59.0289 8.84909C58.9006 4.10213 55.834 0 49.9236 0C44.0133 0 39.697 3.86204 39.697 8.84223C39.697 11.8056 40.7778 13.9527 42.2706 15.9627C42.3787 16.1067 42.3246 16.2782 42.203 16.4085C39.589 19.0633 37.9746 21.7454 37.9746 25.5046C37.9746 30.67 42.2706 36.0412 49.5859 36.0412C53.8548 36.0412 56.8877 34.779 58.9276 32.9131C59.0492 32.8034 59.2383 32.8034 59.3531 32.92L61.6903 35.2934C61.8051 35.4101 62.001 35.4169 62.1158 35.2934L66.351 31.157L48.5322 12.4642ZM46.526 20.2774L53.7535 27.9535C53.8751 28.0838 53.8683 28.2965 53.7333 28.4062C52.7876 29.2088 51.5853 29.8125 49.5589 30.1212C49.2887 30.1623 49.0185 30.1623 48.7551 30.1623C43.7634 30.1623 41.7167 23.577 46.1343 20.2226C46.2558 20.1402 46.4179 20.1677 46.5125 20.2706L46.526 20.2774Z" fill="url(#paint0_linear_602_26)"/>
</g>
<defs>
<linearGradient id="paint0_linear_602_26" x1="52.9159" y1="-7.02439" x2="51.4809" y2="57.4015" gradientUnits="userSpaceOnUse">
<stop offset="0.03" stop-color="#00A696"/>
<stop offset="0.2" stop-color="#A6D370"/>
<stop offset="0.3" stop-color="#FFEC5C"/>
<stop offset="0.54" stop-color="#FAB53A"/>
<stop offset="0.85" stop-color="#F57513"/>
<stop offset="1" stop-color="#F35C04"/>
</linearGradient>
<clipPath id="clip0_602_26">
<rect width="153" height="45" fill="white"/>
</clipPath>
</defs>
</svg>
