<svg width="24" height="15" viewBox="0 0 24 15" fill="none" xmlns="http://www.w3.org/2000/svg">
<path fill-rule="evenodd" clip-rule="evenodd" d="M16.8889 0C14.9245 0 13.3334 1.59111 13.3334 3.55556C13.3334 5.52 14.9245 7.11111 16.8889 7.11111C18.8534 7.11111 20.4445 5.52 20.4445 3.55556C20.4445 1.59111 18.8534 0 16.8889 0ZM18.6667 3.55556C18.6667 2.57778 17.8667 1.77778 16.8889 1.77778C15.9112 1.77778 15.1112 2.57778 15.1112 3.55556C15.1112 4.53333 15.9112 5.33333 16.8889 5.33333C17.8667 5.33333 18.6667 4.53333 18.6667 3.55556ZM22.2223 11.5556C22.0445 10.9244 19.2889 9.77778 16.8889 9.77778C14.4889 9.77778 11.7334 10.9244 11.5556 11.5644V12.4444H22.2223V11.5556ZM9.77783 11.5556C9.77783 9.19111 14.5156 8 16.8889 8C19.2623 8 24.0001 9.19111 24.0001 11.5556V14.2222H9.77783V11.5556Z" fill="black"/>
<path fill-rule="evenodd" clip-rule="evenodd" d="M7.11111 0C5.14667 0 3.55556 1.59111 3.55556 3.55556C3.55556 5.52 5.14667 7.11111 7.11111 7.11111C9.07556 7.11111 10.6667 5.52 10.6667 3.55556C10.6667 1.59111 9.07556 0 7.11111 0ZM8.88889 3.55556C8.88889 2.57778 8.08889 1.77778 7.11111 1.77778C6.13333 1.77778 5.33333 2.57778 5.33333 3.55556C5.33333 4.53333 6.13333 5.33333 7.11111 5.33333C8.08889 5.33333 8.88889 4.53333 8.88889 3.55556ZM12.4444 11.5556C12.2667 10.9244 9.51111 9.77778 7.11111 9.77778C4.71111 9.77778 1.95556 10.9244 1.77778 11.5644V12.4444H12.4444V11.5556ZM0 11.5556C0 9.19111 4.73778 8 7.11111 8C9.48444 8 14.2222 9.19111 14.2222 11.5556V14.2222H0V11.5556Z" fill="black"/>
</svg>
